<?xml version="1.0" encoding="utf-8"?>
<!-- Generator: Adobe Illustrator 17.1.0, SVG Export Plug-In . SVG Version: 6.00 Build 0)  -->
<!DOCTYPE svg PUBLIC "-//W3C//DTD SVG 1.0//EN" "http://www.w3.org/TR/2001/REC-SVG-20010904/DTD/svg10.dtd">
<svg version="1.0" id="Calque_1" xmlns="http://www.w3.org/2000/svg" xmlns:xlink="http://www.w3.org/1999/xlink" x="0px" y="0px"
	 viewBox="0 0 1000 500" enable-background="new 0 0 1000 500" xml:space="preserve">
<g>
	<path d="M241.886,372.461c-0.118,0-0.236-0.016-0.351-0.048l-73.702-20.699c-0.288-0.081-0.539-0.259-0.712-0.504l-44.082-62.703
		c-0.149-0.213-0.232-0.465-0.236-0.725l-1.299-75.347c-0.005-0.289,0.087-0.571,0.26-0.802l45.122-60.105
		c0.158-0.21,0.376-0.368,0.625-0.451l69.805-23.47c0.259-0.087,0.539-0.09,0.8-0.009l70.497,21.911
		c0.251,0.078,0.471,0.23,0.634,0.436l46.075,58.373c0.175,0.221,0.272,0.493,0.279,0.775l1.732,74.221
		c0.006,0.261-0.066,0.518-0.209,0.737l-41.571,64.089c-0.162,0.249-0.404,0.435-0.686,0.528l-72.576,23.73
		C242.159,372.44,242.023,372.461,241.886,372.461z M168.981,349.338l72.876,20.467l71.764-23.464l41.103-63.367l-1.712-73.387
		l-45.556-57.716l-69.711-21.667l-69.024,23.208l-44.612,59.425l1.284,74.502L168.981,349.338z"/>
	<path d="M239.418,157.158c-0.021,0-0.043-0.001-0.064-0.001l-71.493-3.551c-0.624-0.031-1.137-0.501-1.222-1.12
		c-0.086-0.618,0.281-1.21,0.873-1.409l69.805-23.47c0.383-0.129,0.803-0.072,1.139,0.153c0.335,0.226,0.546,0.594,0.572,0.997
		l1.689,27.021c0.023,0.369-0.113,0.73-0.372,0.994C240.098,157.02,239.765,157.158,239.418,157.158z M174.847,151.352l63.184,3.138
		l-1.493-23.88L174.847,151.352z"/>
	<path d="M239.418,157.158c-0.313,0-0.616-0.113-0.854-0.32c-0.262-0.228-0.421-0.552-0.443-0.898l-1.689-27.021
		c-0.027-0.426,0.158-0.839,0.494-1.102c0.336-0.264,0.78-0.345,1.188-0.219l70.497,21.911c0.596,0.185,0.976,0.768,0.905,1.388
		c-0.071,0.62-0.572,1.102-1.194,1.148l-68.809,5.11C239.482,157.157,239.45,157.158,239.418,157.158z M239.143,130.638
		l1.489,23.828l60.678-4.506L239.143,130.638z"/>
	<path d="M154.329,219.688c-0.08,0-0.162-0.008-0.243-0.023l-31.525-5.976c-0.441-0.084-0.807-0.389-0.969-0.807
		c-0.162-0.418-0.097-0.891,0.172-1.249l45.122-60.105c0.365-0.486,1.019-0.655,1.573-0.404c0.554,0.25,0.861,0.851,0.739,1.446
		L155.6,218.651C155.474,219.264,154.934,219.688,154.329,219.688z M125.094,211.525l28.219,5.349l12.171-59.152L125.094,211.525z"
		/>
	<path d="M154.328,219.688c-0.243,0-0.487-0.068-0.701-0.205c-0.453-0.29-0.68-0.829-0.571-1.356l13.597-66.081
		c0.129-0.628,0.703-1.064,1.337-1.036l71.493,3.551c0.549,0.027,1.021,0.397,1.18,0.924c0.158,0.526-0.032,1.095-0.475,1.421
		l-85.09,62.53C154.869,219.604,154.598,219.688,154.328,219.688z M168.973,153.661l-12.691,61.68l79.424-58.366L168.973,153.661z"
		/>
	<path d="M240.934,244.284c-0.119,0-0.238-0.016-0.355-0.049l-86.606-24.596c-0.477-0.135-0.836-0.531-0.924-1.019
		c-0.088-0.488,0.11-0.984,0.509-1.277l85.09-62.53c0.392-0.287,0.91-0.333,1.346-0.117c0.435,0.215,0.714,0.656,0.722,1.141
		l1.513,86.96c0.009,0.061,0.013,0.124,0.013,0.188c0,0.717-0.581,1.299-1.299,1.299
		C240.941,244.284,240.937,244.284,240.934,244.284z M157.235,217.864l82.369,23.393l-1.441-82.863L157.235,217.864z"/>
	<path d="M240.934,244.284c-0.268,0-0.534-0.083-0.757-0.244c-0.334-0.239-0.535-0.622-0.542-1.033l-1.516-87.126
		c-0.009-0.488,0.257-0.94,0.688-1.169c0.43-0.229,0.954-0.198,1.354,0.081l86.216,60.105c0.405,0.283,0.616,0.771,0.541,1.26
		c-0.074,0.489-0.419,0.893-0.89,1.044l-84.701,27.021C241.199,244.264,241.066,244.284,240.934,244.284z M240.761,158.379
		l1.441,82.837l80.532-25.691L240.761,158.379z"/>
	<path d="M325.634,217.263c-0.26,0-0.52-0.078-0.743-0.233l-86.216-60.105c-0.451-0.314-0.655-0.879-0.51-1.409
		c0.145-0.53,0.608-0.911,1.157-0.952l68.808-5.11c0.618-0.044,1.191,0.357,1.351,0.961l17.366,65.058
		c0.062,0.152,0.096,0.318,0.096,0.491c0,0.718-0.582,1.299-1.299,1.299C325.641,217.263,325.638,217.263,325.634,217.263z
		 M243.16,156.884l80.303,55.982l-16.214-60.742L243.16,156.884z"/>
	<path d="M325.633,217.263c-0.575,0-1.099-0.385-1.254-0.964l-17.408-65.214c-0.159-0.595,0.122-1.22,0.673-1.496
		c0.552-0.276,1.221-0.127,1.602,0.356l46.075,58.373c0.275,0.348,0.353,0.812,0.207,1.231c-0.145,0.419-0.494,0.735-0.926,0.838
		l-28.667,6.842C325.835,217.251,325.733,217.263,325.633,217.263z M311.104,156.492l15.459,57.915l25.459-6.076L311.104,156.492z"
		/>
	<path d="M124.102,289.059c-0.084,0-0.169-0.008-0.254-0.025c-0.599-0.12-1.034-0.641-1.045-1.252l-1.299-75.347
		c-0.007-0.391,0.163-0.764,0.462-1.016c0.299-0.252,0.694-0.356,1.079-0.283l31.525,5.976c0.388,0.074,0.722,0.32,0.906,0.669
		c0.185,0.349,0.2,0.764,0.043,1.126l-30.226,69.371C125.084,288.76,124.611,289.059,124.102,289.059z M124.129,213.987
		l1.169,67.776l27.189-62.401L124.129,213.987z"/>
	<path d="M188.277,321.19c-0.198,0-0.397-0.045-0.581-0.138l-64.175-32.131c-0.618-0.309-0.885-1.047-0.609-1.681l30.226-69.371
		c0.215-0.493,0.708-0.799,1.248-0.779c0.537,0.024,1.004,0.376,1.175,0.886l33.899,101.352c0.082,0.171,0.128,0.361,0.128,0.563
		c0,0.718-0.581,1.299-1.299,1.299C188.283,321.19,188.28,321.19,188.277,321.19z M125.785,287.15l60.263,30.173l-31.88-95.315
		L125.785,287.15z"/>
	<path d="M188.277,321.19c-0.06,0-0.12-0.004-0.18-0.013c-0.488-0.068-0.896-0.407-1.053-0.874l-33.949-101.502
		c-0.153-0.457-0.04-0.961,0.293-1.309c0.333-0.349,0.832-0.484,1.295-0.353l86.606,24.596c0.402,0.114,0.725,0.415,0.867,0.808
		c0.142,0.393,0.086,0.831-0.15,1.176l-52.656,76.906C189.105,320.982,188.702,321.19,188.277,321.19z M156.34,220.311l32.34,96.692
		l50.161-73.261L156.34,220.311z"/>
	<path d="M188.277,321.19c-0.477,0-0.916-0.261-1.143-0.682c-0.231-0.428-0.204-0.949,0.071-1.351l52.657-76.907
		c0.238-0.347,0.63-0.558,1.051-0.565c0.426-0.019,0.82,0.191,1.069,0.53l54.908,74.828c0.287,0.391,0.332,0.909,0.117,1.344
		c-0.215,0.435-0.655,0.714-1.14,0.723l-107.565,2.078C188.294,321.19,188.285,321.19,188.277,321.19z M240.97,245.231
		l-50.196,73.313l102.539-1.981L240.97,245.231z"/>
	<path d="M295.842,319.112c-0.41,0-0.8-0.193-1.047-0.531l-54.908-74.828c-0.247-0.337-0.317-0.773-0.188-1.17
		c0.129-0.398,0.442-0.709,0.841-0.836l84.701-27.021c0.456-0.146,0.959-0.028,1.302,0.308c0.344,0.335,0.474,0.833,0.34,1.294
		l-29.792,101.849c-0.139,0.474-0.535,0.829-1.022,0.914C295.992,319.105,295.917,319.112,295.842,319.112z M243.05,243.673
		l52.283,71.251l28.368-96.98L243.05,243.673z"/>
	<path d="M295.842,319.112c-0.286,0-0.57-0.094-0.804-0.279c-0.416-0.328-0.591-0.876-0.443-1.385l29.792-101.849
		c0.153-0.522,0.614-0.894,1.157-0.931c0.548-0.035,1.051,0.266,1.275,0.762l30.399,67.379c0.275,0.61,0.042,1.329-0.539,1.662
		l-60.191,34.47C296.287,319.055,296.064,319.112,295.842,319.112z M325.895,219.7l-27.901,95.384l56.37-32.281L325.895,219.7z"/>
	<path d="M356.033,284.642c-0.501,0-0.97-0.292-1.184-0.765l-30.399-67.379c-0.159-0.353-0.152-0.759,0.018-1.107
		c0.171-0.348,0.488-0.601,0.865-0.691L354,207.858c0.38-0.091,0.783-0.005,1.095,0.235c0.31,0.239,0.496,0.607,0.505,0.999
		l1.728,74.056c0.01,0.063,0.014,0.129,0.014,0.195c0,0.714-0.575,1.293-1.287,1.299
		C356.047,284.642,356.04,284.642,356.033,284.642z M327.465,216.863l27.12,60.112l-1.545-66.216L327.465,216.863z"/>
	<path d="M168.184,351.762c-0.423,0-0.819-0.206-1.063-0.552l-44.083-62.703c-0.342-0.487-0.31-1.144,0.078-1.595
		c0.388-0.451,1.033-0.581,1.566-0.314l64.175,32.131c0.332,0.166,0.577,0.466,0.673,0.824c0.096,0.359,0.035,0.741-0.169,1.051
		l-20.092,30.572c-0.236,0.359-0.635,0.578-1.065,0.586C168.198,351.762,168.191,351.762,168.184,351.762z M128.129,291.229
		l40.019,56.924l18.241-27.754L128.129,291.229z"/>
	<path d="M241.886,372.461c-0.117,0-0.234-0.016-0.351-0.048l-73.702-20.699c-0.399-0.112-0.721-0.408-0.866-0.796
		c-0.145-0.388-0.096-0.823,0.131-1.169l20.092-30.572c0.212-0.322,0.556-0.534,0.939-0.577c0.382-0.045,0.766,0.086,1.045,0.352
		l53.609,51.27c0.431,0.412,0.526,1.065,0.231,1.583C242.779,372.218,242.344,372.461,241.886,372.461z M170.245,349.693
		l66.982,18.811l-48.722-46.596L170.245,349.693z"/>
	<path d="M241.886,372.461c-0.323,0-0.646-0.12-0.898-0.36l-53.609-51.27c-0.38-0.363-0.504-0.921-0.312-1.411
		c0.191-0.49,0.659-0.816,1.185-0.827l107.565-2.079c0.531-0.001,1.015,0.305,1.221,0.794c0.207,0.49,0.094,1.056-0.283,1.429
		l-53.956,53.349C242.547,372.336,242.216,372.461,241.886,372.461z M191.451,321.129l50.42,48.22l50.746-50.175L191.451,321.129z"
		/>
	<path d="M241.886,372.461c-0.443,0-0.868-0.228-1.109-0.623c-0.314-0.514-0.233-1.177,0.195-1.6l53.956-53.349
		c0.28-0.277,0.666-0.411,1.063-0.367c0.391,0.045,0.741,0.265,0.951,0.599l18.62,29.619c0.213,0.339,0.258,0.757,0.122,1.133
		c-0.136,0.376-0.438,0.669-0.818,0.793l-72.576,23.73C242.157,372.44,242.021,372.461,241.886,372.461z M295.604,319.875
		l-48.892,48.342l65.764-21.503L295.604,319.875z"/>
	<path d="M314.462,348.731c-0.003,0-0.006,0-0.009,0c-0.444-0.003-0.855-0.232-1.091-0.608l-18.62-29.619
		c-0.188-0.299-0.247-0.663-0.161-1.006c0.086-0.344,0.308-0.637,0.615-0.813l60.191-34.47c0.521-0.297,1.177-0.201,1.589,0.235
		c0.412,0.435,0.473,1.097,0.146,1.6l-41.571,64.089C315.313,348.508,314.902,348.731,314.462,348.731z M297.662,318.267
		l16.817,26.751l37.545-57.883L297.662,318.267z"/>
</g>
<g>
	<path d="M445.191,198.954c11.184,0,19.857,1.493,26.021,4.479c6.161,2.986,10.71,8.154,13.65,15.499
		c2.937,7.347,4.408,17.703,4.408,31.069c0,13.365-1.471,23.723-4.408,31.067c-2.939,7.348-7.489,12.513-13.65,15.499
		c-6.163,2.986-14.837,4.479-26.021,4.479c-16.494,0-27.94-3.576-34.339-10.734c-6.398-7.156-9.598-20.594-9.598-40.311
		c0-19.716,3.199-33.153,9.598-40.311C417.25,202.533,428.697,198.954,445.191,198.954z M457.846,225.686
		c-2.182-4.17-6.399-6.256-12.655-6.256c-6.256,0-10.476,2.087-12.655,6.256c-2.182,4.172-3.271,12.277-3.271,24.315
		c0,12.039,1.088,20.144,3.271,24.314c2.179,4.173,6.398,6.257,12.655,6.257c6.256,0,10.473-2.084,12.655-6.257
		c2.179-4.17,3.27-12.274,3.27-24.314C461.116,237.963,460.025,229.858,457.846,225.686z"/>
	<path d="M537.854,264.077l-19.622-7.82c-7.678-3.128-13.13-6.942-16.352-11.446c-3.224-4.501-4.835-10.402-4.835-17.703
		c0-10.995,2.795-18.413,8.389-22.253c5.592-3.839,15.545-5.759,29.86-5.759c13.744,0,25.119,1.471,34.125,4.408l-1.706,17.489
		c-16.778-0.285-27.681-0.427-32.704-0.427c-4.55,0-7.607,0.38-9.171,1.138c-1.564,0.76-2.346,2.417-2.346,4.977
		c0,2.182,0.662,3.863,1.991,5.048c1.326,1.186,3.79,2.395,7.394,3.626l18.058,6.967c7.866,3.128,13.412,6.968,16.636,11.518
		c3.222,4.55,4.834,10.522,4.834,17.916c0,11.09-2.772,18.722-8.317,22.892c-5.546,4.173-15.57,6.257-30.073,6.257
		c-12.513,0-24.505-1.422-35.974-4.266l1.564-18.911c19.431,0.476,30.855,0.711,34.268,0.711c4.739,0,7.891-0.402,9.456-1.209
		c1.565-0.804,2.346-2.439,2.346-4.905c0-2.275-0.546-3.933-1.635-4.977C542.948,266.305,540.886,265.215,537.854,264.077z"/>
	<path d="M661.642,242.607v56.449h-19.622l-2.275-9.953c-2.939,3.224-6.778,6.021-11.518,8.389
		c-4.741,2.369-10.144,3.555-16.209,3.555c-11.187,0-19.315-3.98-24.386-11.943c-5.072-7.963-7.607-21.044-7.607-39.244
		c0-18.958,3.364-32.182,10.096-39.671c6.73-7.487,18.436-11.233,35.121-11.233c12.417,0,23.318,1.28,32.703,3.839l-2.133,19.337
		c-10.237-0.284-20.333-0.426-30.286-0.426c-6.921,0-11.566,1.826-13.935,5.474c-2.37,3.65-3.555,11.304-3.555,22.963
		c0,10.902,0.995,18.296,2.986,22.182c1.99,3.888,5.733,5.83,11.232,5.83c4.55,0,9.146-0.805,13.792-2.418v-33.129H661.642z"/>
	<path d="M682.769,274.884h6.114c3.412,0,5.759,0.64,7.038,1.919c1.28,1.28,1.92,3.626,1.92,7.039v6.256
		c0,3.413-0.64,5.759-1.92,7.038c-1.279,1.28-3.626,1.92-7.038,1.92h-6.114c-3.412,0-5.759-0.64-7.038-1.92
		c-1.28-1.279-1.92-3.625-1.92-7.038v-6.256c0-3.413,0.64-5.759,1.92-7.039C677.01,275.523,679.356,274.884,682.769,274.884z"/>
	<path d="M751.686,200.945v78.915c0,6.732-2.133,11.922-6.398,15.569c-4.266,3.648-10.19,5.475-17.773,5.475
		c-9.195,0-16.067-1.091-20.617-3.271l2.844-17.205h6.683c5.877,0,8.816-2.037,8.816-6.114v-73.369H751.686z"/>
	<path d="M802.9,264.077l-19.622-7.82c-7.678-3.128-13.13-6.942-16.352-11.446c-3.224-4.501-4.834-10.402-4.834-17.703
		c0-10.995,2.795-18.413,8.389-22.253c5.592-3.839,15.545-5.759,29.859-5.759c13.744,0,25.119,1.471,34.126,4.408l-1.706,17.489
		c-16.778-0.285-27.681-0.427-32.704-0.427c-4.55,0-7.606,0.38-9.171,1.138c-1.564,0.76-2.346,2.417-2.346,4.977
		c0,2.182,0.661,3.863,1.99,5.048c1.326,1.186,3.79,2.395,7.393,3.626l18.059,6.967c7.866,3.128,13.412,6.968,16.636,11.518
		c3.222,4.55,4.834,10.522,4.834,17.916c0,11.09-2.772,18.722-8.317,22.892c-5.546,4.173-15.57,6.257-30.073,6.257
		c-12.513,0-24.505-1.422-35.974-4.266l1.563-18.911c19.432,0.476,30.855,0.711,34.268,0.711c4.739,0,7.892-0.402,9.456-1.209
		c1.564-0.804,2.346-2.439,2.346-4.905c0-2.275-0.546-3.933-1.635-4.977C807.995,266.305,805.934,265.215,802.9,264.077z"/>
</g>
<g>
</g>
<g>
</g>
<g>
</g>
<g>
</g>
<g>
</g>
<g>
</g>
<g>
</g>
<g>
</g>
<g>
</g>
<g>
</g>
<g>
</g>
<g>
</g>
<g>
</g>
<g>
</g>
<g>
</g>
</svg>
