<?xml version="1.0" encoding="utf-8"?>
<!-- Generator: Adobe Illustrator 17.1.0, SVG Export Plug-In . SVG Version: 6.00 Build 0)  -->
<!DOCTYPE svg PUBLIC "-//W3C//DTD SVG 1.0//EN" "http://www.w3.org/TR/2001/REC-SVG-20010904/DTD/svg10.dtd">
<svg version="1.0" id="Calque_1" xmlns="http://www.w3.org/2000/svg" xmlns:xlink="http://www.w3.org/1999/xlink" x="0px" y="0px"
	 viewBox="0 0 1000 500" enable-background="new 0 0 1000 500" xml:space="preserve">
<g>
	<path fill="#052326" d="M504.717,481.816c-0.224,0-0.449-0.031-0.666-0.091l-139.767-39.253c-0.547-0.154-1.023-0.491-1.35-0.956
		l-83.598-118.909c-0.283-0.403-0.439-0.882-0.447-1.374l-2.464-142.887c-0.01-0.548,0.164-1.083,0.492-1.521l85.568-113.982
		c0.3-0.398,0.713-0.697,1.185-0.856l132.376-44.508c0.491-0.165,1.022-0.171,1.517-0.017l133.69,41.552
		c0.475,0.147,0.894,0.436,1.202,0.826l87.375,110.697c0.331,0.419,0.517,0.935,0.529,1.469l3.284,140.752
		c0.011,0.496-0.126,0.983-0.396,1.398l-78.834,121.537c-0.307,0.473-0.766,0.826-1.301,1.001l-137.632,45
		C505.234,481.776,504.977,481.816,504.717,481.816z M366.461,437.966l138.202,38.813l136.092-44.497l77.947-120.169l-3.247-139.169
		L629.063,63.492L496.865,22.403l-130.896,44.01l-84.601,112.693l2.435,141.285L366.461,437.966z"/>
	<path fill="#052326" d="M500.037,73.52c-0.04,0-0.081-0.001-0.122-0.003l-135.579-6.734c-1.182-0.059-2.156-0.951-2.318-2.123
		c-0.162-1.173,0.533-2.295,1.655-2.673l132.376-44.508c0.727-0.244,1.524-0.136,2.16,0.291c0.635,0.428,1.036,1.126,1.084,1.891
		l3.203,51.243c0.043,0.7-0.214,1.385-0.707,1.884C501.326,73.257,500.695,73.52,500.037,73.52z M377.586,62.508l119.821,5.951
		l-2.831-45.286L377.586,62.508z"/>
	<path fill="#052326" d="M500.037,73.52c-0.594,0-1.169-0.214-1.619-0.607c-0.496-0.433-0.799-1.046-0.84-1.703l-3.202-51.243
		c-0.051-0.809,0.3-1.59,0.937-2.09c0.638-0.501,1.48-0.654,2.254-0.415l133.69,41.552c1.13,0.351,1.851,1.456,1.716,2.632
		c-0.134,1.176-1.085,2.09-2.265,2.178l-130.487,9.69C500.159,73.518,500.098,73.52,500.037,73.52z M499.516,23.228l2.825,45.188
		l115.069-8.545L499.516,23.228z"/>
	<path fill="#052326" d="M338.676,192.1c-0.152,0-0.307-0.014-0.462-0.044l-59.783-11.332c-0.836-0.158-1.531-0.736-1.838-1.53
		c-0.307-0.793-0.184-1.689,0.327-2.37l85.568-113.982c0.693-0.922,1.932-1.242,2.983-0.767c1.051,0.474,1.633,1.613,1.401,2.743
		l-25.785,125.314C340.846,191.296,339.822,192.1,338.676,192.1z M283.234,176.62l53.514,10.145L359.83,74.59L283.234,176.62z"/>
	<path fill="#052326" d="M338.673,192.1c-0.462,0-0.923-0.129-1.329-0.389c-0.859-0.551-1.289-1.572-1.083-2.571l25.785-125.314
		c0.245-1.19,1.332-2.017,2.535-1.964l135.579,6.734c1.041,0.052,1.937,0.753,2.237,1.752c0.3,0.998-0.06,2.077-0.9,2.694
		l-161.364,118.58C339.698,191.94,339.186,192.1,338.673,192.1z M366.445,66.887l-24.068,116.97L492.997,73.174L366.445,66.887z"/>
	<path fill="#052326" d="M502.911,238.743c-0.225,0-0.452-0.031-0.673-0.094L338,192.006c-0.905-0.257-1.585-1.007-1.751-1.932
		c-0.167-0.926,0.208-1.865,0.965-2.423l161.365-118.58c0.743-0.545,1.727-0.632,2.552-0.223c0.825,0.409,1.353,1.244,1.37,2.165
		l2.869,164.911c0.016,0.117,0.025,0.236,0.025,0.356c0,1.361-1.103,2.464-2.464,2.464
		C502.926,238.743,502.917,238.743,502.911,238.743z M344.187,188.641l156.203,44.361l-2.734-157.141L344.187,188.641z"/>
	<path fill="#052326" d="M502.911,238.743c-0.509,0-1.013-0.158-1.436-0.462c-0.633-0.454-1.014-1.18-1.027-1.959l-2.874-165.223
		c-0.016-0.925,0.488-1.782,1.305-2.216c0.816-0.435,1.809-0.376,2.568,0.153l163.499,113.981c0.769,0.536,1.168,1.462,1.027,2.389
		c-0.14,0.926-0.794,1.694-1.687,1.979L503.66,238.627C503.414,238.705,503.163,238.743,502.911,238.743z M502.584,75.835
		l2.733,157.092l152.719-48.721L502.584,75.835z"/>
	<path fill="#052326" d="M663.536,187.501c-0.492,0-0.985-0.147-1.409-0.443L498.628,73.077c-0.855-0.596-1.242-1.666-0.967-2.672
		c0.275-1.005,1.154-1.729,2.193-1.806l130.487-9.69c1.171-0.084,2.258,0.676,2.562,1.821l32.933,123.376
		c0.117,0.287,0.182,0.602,0.182,0.931c0,1.361-1.103,2.464-2.464,2.464C663.55,187.501,663.544,187.501,663.536,187.501z
		 M507.133,72.999l152.286,106.165l-30.747-115.19L507.133,72.999z"/>
	<path fill="#052326" d="M663.534,187.501c-1.091,0-2.085-0.73-2.378-1.829L628.145,62.001c-0.302-1.129,0.232-2.314,1.276-2.838
		c1.046-0.524,2.315-0.241,3.037,0.676l87.375,110.697c0.521,0.66,0.67,1.54,0.393,2.334c-0.275,0.794-0.938,1.393-1.755,1.589
		l-54.363,12.975C663.917,187.48,663.724,187.501,663.534,187.501z M635.981,72.256l29.317,109.829l48.28-11.522L635.981,72.256z"/>
	<path fill="#052326" d="M281.354,323.655c-0.159,0-0.322-0.016-0.482-0.047c-1.137-0.227-1.962-1.216-1.982-2.374l-2.464-142.887
		c-0.013-0.741,0.309-1.449,0.875-1.926c0.567-0.478,1.316-0.676,2.047-0.536l59.783,11.333c0.736,0.139,1.369,0.607,1.718,1.269
		c0.35,0.663,0.38,1.449,0.081,2.135l-57.32,131.554C283.215,323.087,282.319,323.655,281.354,323.655z M281.405,181.288
		l2.216,128.53l51.561-118.336L281.405,181.288z"/>
	<path fill="#052326" d="M403.053,384.587c-0.376,0-0.753-0.086-1.103-0.261L280.25,323.394c-1.171-0.586-1.679-1.987-1.156-3.188
		l57.319-131.554c0.407-0.934,1.343-1.516,2.367-1.477c1.018,0.045,1.904,0.712,2.228,1.68l64.285,192.202
		c0.156,0.323,0.242,0.685,0.242,1.067c0,1.361-1.103,2.464-2.464,2.464C403.066,384.587,403.06,384.587,403.053,384.587z
		 M284.545,320.034l114.282,57.22L338.37,196.499L284.545,320.034z"/>
	<path fill="#052326" d="M403.055,384.587c-0.113,0-0.227-0.008-0.341-0.024c-0.927-0.129-1.699-0.772-1.996-1.658l-64.381-192.488
		c-0.289-0.867-0.076-1.822,0.555-2.483c0.632-0.661,1.577-0.917,2.455-0.669l164.238,46.644c0.763,0.217,1.375,0.786,1.645,1.533
		c0.27,0.745,0.164,1.575-0.285,2.229l-99.857,145.844C404.624,384.192,403.86,384.587,403.055,384.587z M342.49,193.281
		l61.329,183.364l95.124-138.932L342.49,193.281z"/>
	<path fill="#052326" d="M403.054,384.587c-0.904,0-1.738-0.496-2.168-1.293c-0.438-0.812-0.386-1.801,0.135-2.561l99.857-145.844
		c0.452-0.658,1.194-1.058,1.992-1.071c0.809-0.035,1.554,0.361,2.026,1.005l104.128,141.903c0.543,0.741,0.629,1.724,0.222,2.549
		c-0.408,0.824-1.242,1.353-2.161,1.371l-203.984,3.941C403.086,384.587,403.07,384.587,403.054,384.587z M502.98,240.538
		l-95.191,139.029l194.454-3.757L502.98,240.538z"/>
	<path fill="#052326" d="M607.039,380.646c-0.776,0-1.518-0.366-1.987-1.007L500.925,237.738c-0.469-0.639-0.602-1.465-0.357-2.219
		c0.246-0.754,0.839-1.344,1.594-1.585l160.625-51.243c0.865-0.277,1.818-0.053,2.469,0.584c0.653,0.636,0.9,1.58,0.644,2.454
		l-56.498,193.146c-0.263,0.9-1.014,1.572-1.937,1.734C607.323,380.634,607.18,380.646,607.039,380.646z M506.925,237.585
		l99.149,135.118l53.797-183.911L506.925,237.585z"/>
	<path fill="#052326" d="M607.039,380.646c-0.542,0-1.081-0.179-1.526-0.53c-0.789-0.621-1.121-1.661-0.839-2.626l56.497-193.145
		c0.289-0.99,1.164-1.695,2.193-1.766c1.039-0.066,1.993,0.505,2.417,1.445l57.648,127.778c0.522,1.156,0.079,2.521-1.022,3.151
		L608.263,380.32C607.881,380.538,607.459,380.646,607.039,380.646z M664.03,192.123l-52.91,180.884l106.899-61.218L664.03,192.123z
		"/>
	<path fill="#052326" d="M721.183,315.279c-0.951,0-1.84-0.553-2.245-1.45L661.29,186.051c-0.301-0.67-0.289-1.439,0.034-2.099
		c0.323-0.66,0.925-1.141,1.64-1.311l54.364-12.975c0.721-0.173,1.485-0.008,2.076,0.445c0.589,0.454,0.941,1.15,0.958,1.894
		l3.278,140.439c0.018,0.121,0.027,0.245,0.027,0.371c0,1.353-1.091,2.452-2.442,2.464
		C721.211,315.279,721.198,315.279,721.183,315.279z M667.008,186.742l51.43,113.995l-2.93-125.571L667.008,186.742z"/>
	<path fill="#052326" d="M364.951,442.564c-0.801,0-1.553-0.39-2.015-1.047l-83.598-118.909c-0.65-0.923-0.588-2.169,0.148-3.025
		c0.735-0.854,1.958-1.102,2.969-0.595l121.701,60.933c0.63,0.315,1.094,0.884,1.276,1.563c0.183,0.681,0.066,1.405-0.32,1.993
		l-38.102,57.975c-0.448,0.681-1.205,1.097-2.021,1.111C364.977,442.564,364.964,442.564,364.951,442.564z M288.99,327.77
		l75.892,107.949l34.591-52.632L288.99,327.77z"/>
	<path fill="#052326" d="M504.717,481.816c-0.221,0-0.444-0.03-0.666-0.091l-139.767-39.253c-0.757-0.212-1.366-0.773-1.642-1.509
		c-0.275-0.736-0.183-1.56,0.249-2.216l38.103-57.976c0.402-0.611,1.054-1.013,1.781-1.095c0.724-0.086,1.452,0.163,1.981,0.668
		l101.663,97.229c0.818,0.781,0.998,2.019,0.438,3.001C506.411,481.356,505.586,481.816,504.717,481.816z M368.859,438.639
		l127.024,35.673l-92.395-88.364L368.859,438.639z"/>
	<path fill="#052326" d="M504.717,481.816c-0.613,0-1.226-0.227-1.702-0.684l-101.664-97.228c-0.721-0.689-0.955-1.746-0.593-2.676
		c0.363-0.93,1.25-1.548,2.247-1.569l203.985-3.941c1.008-0.003,1.926,0.578,2.317,1.505c0.392,0.928,0.179,2.001-0.537,2.71
		L506.45,481.104C505.971,481.578,505.344,481.816,504.717,481.816z M409.073,384.472l95.615,91.444l96.234-95.152L409.073,384.472z
		"/>
	<path fill="#052326" d="M504.717,481.816c-0.841,0-1.647-0.432-2.103-1.181c-0.595-0.975-0.441-2.232,0.371-3.034l102.321-101.17
		c0.531-0.526,1.263-0.78,2.015-0.696c0.742,0.086,1.405,0.504,1.802,1.137l35.311,56.169c0.404,0.642,0.49,1.435,0.232,2.148
		c-0.258,0.714-0.83,1.268-1.552,1.504l-137.632,45C505.23,481.777,504.973,481.816,504.717,481.816z M606.588,382.094
		l-92.718,91.675l124.714-40.777L606.588,382.094z"/>
	<path fill="#052326" d="M642.349,436.815c-0.006,0-0.011,0-0.017,0c-0.841-0.006-1.621-0.44-2.068-1.153l-35.311-56.169
		c-0.357-0.568-0.468-1.257-0.305-1.908c0.163-0.651,0.584-1.207,1.167-1.542l114.145-65.367c0.988-0.563,2.233-0.381,3.014,0.445
		c0.781,0.826,0.896,2.079,0.277,3.034l-78.834,121.537C643.963,436.393,643.184,436.815,642.349,436.815z M610.49,379.044
		l31.892,50.73l71.2-109.767L610.49,379.044z"/>
</g>
</svg>
